<svg width="196" height="196" viewBox="0 0 196 196" fill="none" xmlns="http://www.w3.org/2000/svg">
<mask id="mask0_1213_1413" style="mask-type:alpha" maskUnits="userSpaceOnUse" x="0" y="0" width="196" height="196">
<rect width="196" height="196" fill="#D9D9D9"/>
</mask>
<g mask="url(#mask0_1213_1413)">
<rect width="196" height="196" fill="#F3F3F3"/>
<path d="M167.25 162.162C176.15 166.662 186.74 173.032 198.88 201.142L198.41 201.502L119.32 201.362C118.85 194.052 119.01 184.412 119.1 178.982C119.2 179.002 119.31 179.002 119.41 179.002C121.34 179.002 122.91 177.282 122.91 175.152C122.91 173.022 121.34 171.302 119.41 171.302C118.57 171.302 117.79 171.632 117.19 172.182L115.51 170.322C116.95 169.122 118.38 167.902 119.73 166.722C124.91 162.222 126.05 160.602 128.24 159.092C129.46 158.252 131.02 157.442 133.8 156.172C133.8 156.172 142.91 149.002 129.23 145.272C126.02 144.212 127.12 139.642 127.12 139.642C129.93 142.452 137.67 141.052 137.67 141.052C131.28 140.072 130.56 135.142 130.7 132.262C155.27 134.032 160.04 143.412 161.15 152.852C161.15 152.852 161.15 152.902 161.11 153.002C160.8 154.252 158.02 163.102 141.91 169.532L142.73 170.002C157.49 170.982 159.66 163.252 161.81 153.332C166.98 156.432 168.28 160.782 167.25 162.152V162.162Z" fill="white"/>
<path d="M47.2601 111.523C46.8601 112.083 46.4601 112.593 46.0501 113.063C40.2901 119.713 33.55 118.183 33.55 118.183C38.83 116.773 38.83 110.093 34.61 106.223C30.53 102.483 32.6901 97.4327 32.8401 97.1027C30.3701 99.8827 25.8101 98.1327 25.8101 98.1327C30.1201 96.3327 31.78 93.1527 31.98 89.3027C32.18 85.6227 31.0601 81.3227 29.6801 77.0327C28.3201 72.7727 28.1901 68.9227 28.9501 65.5327C29.5601 62.7627 30.76 60.2927 32.35 58.1427C32.83 57.4927 33.3501 56.8627 33.9001 56.2727C35.1201 54.9527 36.8301 53.4727 38.7101 51.7327C42.3301 48.3927 46.6001 44.1227 49.3801 38.3327C49.9201 37.2027 50.5 36.1527 51.11 35.1727C51.14 35.1427 51.1501 35.1227 51.1501 35.1227C53.7901 30.9127 57.1001 27.9027 61.1901 24.8727C63.5501 23.1127 66.18 21.3527 69.08 19.3427C69.73 18.8927 70.3901 18.4727 71.0401 18.0927C72.9701 16.9427 74.9101 16.0827 76.8101 15.5127C83.3001 13.5727 89.41 14.9927 93.7 20.0427C93.7 20.0427 93.7 20.0327 93.71 20.0227C94.04 19.6627 98.57 14.9027 110.23 14.0627C111.57 13.9627 113.2 14.0327 115 14.3127H115.01C118.6 14.8727 122.85 16.3227 126.8 19.1627C126.8 19.1627 126.81 19.1727 126.83 19.1827C128.15 20.1327 129.43 21.2327 130.64 22.5027C133.49 25.5027 135.65 26.8827 137.65 28.1427C140.35 29.8327 142.75 31.3027 146.11 36.2227C148.01 38.9927 148.7 41.4727 149.23 43.7927C149.9 46.7427 150.32 49.4427 152.68 52.2127C152.93 52.5227 153.2 52.8127 153.5 53.1127C155.79 55.3927 158.48 57.5627 160.85 60.1927C163.93 63.6127 166.47 67.8427 166.87 74.2127C166.9 74.5727 166.91 74.9427 166.91 75.2927V75.3127C167.07 82.5627 164.21 86.7727 164.49 90.4827C164.62 92.1127 165.35 93.6527 167.2 95.3127C166.96 95.2727 164.98 94.9027 163 93.9127C162.21 93.5227 161.43 93.6627 160.77 94.2627C159.66 95.2927 158.91 97.6327 159.13 100.953C159.45 105.773 158.01 111.473 152.93 114.303C152.45 114.573 151.94 114.813 151.39 115.023C145.06 117.483 140.13 118.533 140.13 123.113C140.13 127.693 147.01 125.383 148.76 124.283C147.48 125.233 139.08 131.123 130.99 130.143L129.59 129.393C131.85 125.083 133.83 119.523 135.21 112.233L135.32 112.253C141.19 111.503 143.65 105.523 144.71 94.9727C143.02 92.4527 141.16 90.9327 139.18 88.9027C138.58 88.2827 137.97 87.6227 137.35 86.8627C136.76 86.1427 136.16 85.3327 135.56 84.4127C131.83 78.6927 128.44 77.7927 119.38 75.6227C110.59 73.5127 113.41 68.3127 113.41 58.5027C113.41 52.5027 108.41 52.5027 108.41 52.5027C109.47 55.6727 108.47 55.9227 103.9 60.1427C98.6001 65.0427 99.68 72.4527 103.2 75.6227C106.72 78.7927 106.01 81.9527 106.01 81.9527C104.96 78.0827 98.2701 78.0827 96.1601 69.9927C94.0501 61.9027 98.0001 58.4227 99.4101 53.5027C100.82 48.5827 98.4101 45.5027 97.4101 45.5027C97.4101 45.5027 92.89 47.8327 91.48 55.2227C90.07 62.6027 90.89 65.0727 85.61 68.9427C80.33 72.8127 74.3501 73.5127 74.0001 77.3827C74.0001 77.3827 71.5401 74.7027 74.0001 72.3527C76.4701 69.9927 79.2801 68.9427 77.1701 66.4727C75.0601 64.0127 70.84 67.1827 68.73 72.4527C66.62 77.7327 64.16 82.3027 59.23 85.1227C58.47 85.5527 57.8701 85.9827 57.3801 86.4127C56.0201 87.5927 55.46 88.8127 54.61 90.3727C53.76 91.9327 52.62 93.8327 50.08 96.3727C49.77 96.6827 49.49 96.9927 49.23 97.3027C50.08 102.713 52.01 111.453 59.84 113.063C60.99 117.743 62.4901 122.653 64.7901 127.263L63.1401 128.113C62.9101 127.673 62.6601 127.283 62.4001 126.983C60.2801 124.513 59.2301 125.573 54.5001 128.463C49.7701 131.353 44.46 128.383 44.46 128.383C44.46 128.383 49.0301 129.093 52.1901 126.273C54.6701 124.073 54.6601 119.593 50.4401 117.833C46.3901 116.143 47.1901 111.883 47.2601 111.523Z" fill="black"/>
<path d="M161.34 153.052C161.5 153.142 161.66 153.232 161.81 153.332C159.66 163.252 157.49 170.982 142.73 170.002L141.91 169.532C158.02 163.102 160.8 154.252 161.11 153.002L161.34 153.052Z" fill="black"/>
<path d="M139.18 88.9023C141.16 90.9323 143.02 92.4523 144.71 94.9723C143.65 105.522 141.19 111.502 135.32 112.252L135.21 112.232C136.07 107.682 136.7 102.462 137.02 96.4523C137.02 96.4523 137.02 96.4424 137.03 96.4324C137.18 95.9824 138.85 91.0223 139.08 88.9923L139.18 88.9023Z" fill="white"/>
<path d="M73.6502 138.992C69.7702 135.622 66.9302 131.572 64.7902 127.262C62.4902 122.652 60.9901 117.742 59.8401 113.062C58.8801 109.112 58.1701 105.322 57.4701 102.002C56.9601 98.422 56.0601 91.452 57.4701 86.522L57.3802 86.412C57.8702 85.982 58.4701 85.552 59.2301 85.122C64.1601 82.302 66.6201 77.732 68.7301 72.452C70.8401 67.182 75.0602 64.012 77.1702 66.472C79.2802 68.942 76.4702 69.992 74.0002 72.352C71.5402 74.702 74.0002 77.382 74.0002 77.382C74.3502 73.512 80.3301 72.812 85.6101 68.942C90.8901 65.072 90.0701 62.602 91.4801 55.222C92.8901 47.832 97.4102 45.502 97.4102 45.502C98.4102 45.502 100.82 48.582 99.4102 53.502C98.0002 58.422 94.0502 61.902 96.1602 69.992C98.2702 78.082 104.96 78.082 106.01 81.952C106.01 81.952 106.72 78.792 103.2 75.622C99.6801 72.452 98.6002 65.042 103.9 60.142C108.47 55.922 109.47 55.672 108.41 52.502C108.41 52.502 113.41 52.502 113.41 58.502C113.41 68.312 110.59 73.512 119.38 75.622C128.44 77.792 131.83 78.692 135.56 84.412C136.16 85.332 136.76 86.1419 137.35 86.8619L137.32 86.882C137.94 91.812 137.11 96.042 137.03 96.422L137.02 96.452C136.7 102.462 136.07 107.682 135.21 112.232C133.83 119.522 131.85 125.082 129.59 129.392C127.17 134.012 124.43 137.212 121.77 139.562C121.32 139.962 120.87 140.342 120.43 140.692C114.39 145.532 108.47 149.142 98.9801 149.142C96.6101 149.142 94.3301 148.912 92.1101 148.452C92.1101 148.452 92.1101 148.442 92.0901 148.442C86.4301 147.302 81.1702 144.682 75.7602 140.692C75.0202 140.152 74.3202 139.582 73.6502 138.992Z" fill="white"/>
<path d="M130.7 132.263C130.56 135.143 131.28 140.073 137.67 141.053C137.67 141.053 129.93 142.453 127.12 139.643C127.12 139.643 126.02 144.213 129.23 145.273C129.23 145.273 122.9 145.273 121.84 143.163H121.59C121.64 142.023 121.73 140.843 121.84 139.643L121.77 139.563C124.43 137.213 127.17 134.013 129.59 129.393L130.99 130.143C130.99 130.143 130.77 131.013 130.7 132.263Z" fill="black"/>
<path d="M129.23 145.272C142.91 149.002 133.8 156.172 133.8 156.172C131.02 157.442 129.46 158.252 128.24 159.092L128.17 158.992C123.45 158.122 122.53 154.872 122.53 154.872C121.84 153.612 121.33 148.972 121.59 143.152H121.84C122.9 145.272 129.23 145.272 129.23 145.272Z" fill="black"/>
<path d="M128.17 158.992L128.24 159.092C126.05 160.602 124.91 162.222 119.73 166.722C103.24 174.592 86.19 171.442 77.91 165.702C77.89 165.692 77.87 165.682 77.85 165.662C73.66 162.392 70.55 160.212 67.49 158.502L67.52 158.452C72.24 157.582 73.1901 154.872 73.1901 154.872C73.8801 153.592 74.23 148.362 73.9 142.312C73.84 141.232 73.76 140.112 73.65 138.992C74.32 139.582 75.02 140.152 75.76 140.692C81.17 144.682 86.43 147.302 92.09 148.442C92.1 148.442 92.1 148.452 92.11 148.452C102.43 154.502 115.65 155.252 122.53 154.872C122.53 154.872 123.45 158.122 128.17 158.992Z" fill="white"/>
<path d="M119.1 178.983C117.32 178.813 115.91 177.173 115.91 175.153C115.91 173.953 116.41 172.883 117.19 172.183C117.79 171.633 118.57 171.303 119.41 171.303C121.34 171.303 122.91 173.023 122.91 175.153C122.91 177.283 121.34 179.003 119.41 179.003C119.31 179.003 119.2 179.003 119.1 178.983Z" fill="white"/>
<path d="M121.77 139.562L121.84 139.643C121.73 140.843 121.64 142.023 121.59 143.153C121.33 148.973 121.84 153.613 122.53 154.873C115.65 155.253 102.43 154.502 92.1101 148.452C94.3301 148.912 96.6101 149.143 98.9801 149.143C108.47 149.143 114.39 145.533 120.43 140.693C120.87 140.343 121.32 139.963 121.77 139.562Z" fill="black"/>
<path d="M74.8901 178.953C75.0601 178.993 75.2301 179.003 75.4101 179.003C77.3401 179.003 78.9101 177.283 78.9101 175.153C78.9101 173.023 77.3401 171.303 75.4101 171.303C73.4801 171.303 71.9101 173.023 71.9101 175.153C71.9101 177.083 73.2001 178.683 74.8901 178.953ZM74.0301 201.283L-2.5899 201.143L-2.92993 200.993C9.17007 173.003 19.7601 166.653 28.6301 162.153C27.5701 160.743 28.98 156.173 34.54 153.053L34.7601 153.003C36.9301 163.083 38.9801 171.003 53.9101 170.003L53.97 169.533C37.14 162.823 34.8601 153.463 34.7401 152.883C34.7301 152.873 34.73 152.863 34.73 152.853C35.83 143.403 45.1601 133.663 64.1501 131.553H64.1901C64.6201 134.603 63.9701 138.213 60.9901 140.343C58.5301 142.103 54.6601 142.453 54.6601 142.453C54.6601 142.453 64.5101 144.923 68.0201 141.403C68.0201 141.403 69.7801 143.503 67.6801 145.963H67.6701C67.6701 145.963 63.9101 146.003 61.1901 148.443C57.4201 151.833 62.7501 156.173 62.7501 156.173C64.4001 156.883 65.9401 157.633 67.4901 158.503C70.5501 160.213 73.66 162.393 77.85 165.663C77.87 165.683 77.8901 165.693 77.9101 165.703C86.0101 172.003 96.8801 180.443 100.03 180.443C102.64 180.443 109.25 175.533 115.51 170.323L117.19 172.183C116.41 172.883 115.91 173.953 115.91 175.153C115.91 177.173 117.32 178.813 119.1 178.983C119.01 184.413 118.85 194.053 119.32 201.363L74.0301 201.283Z" fill="white"/>
<path d="M119.73 166.723C118.38 167.903 116.95 169.123 115.51 170.323C109.25 175.533 102.64 180.443 100.03 180.443C96.8802 180.443 86.0102 172.003 77.9102 165.703C86.1902 171.443 103.24 174.593 119.73 166.723Z" fill="black"/>
<path d="M74.8901 178.953C73.2001 178.683 71.9102 177.083 71.9102 175.153C71.9102 173.023 73.4802 171.303 75.4102 171.303C77.3402 171.303 78.9102 173.023 78.9102 175.153C78.9102 177.283 77.3402 179.003 75.4102 179.003C75.2302 179.003 75.0601 178.993 74.8901 178.953Z" fill="white"/>
<path d="M73.9 142.312C74.23 148.363 73.8801 153.593 73.1901 154.873C73.1901 154.873 72.24 157.582 67.52 158.452L67.49 158.503C65.94 157.633 64.4 156.883 62.75 156.173C62.75 156.173 57.4201 151.833 61.1901 148.443C63.9101 146.003 67.6701 145.973 67.6701 145.973H67.6801C67.9701 145.883 72.64 144.493 73.82 142.312H73.9Z" fill="black"/>
<path d="M73.9001 142.312H73.8201C72.6401 144.492 67.9702 145.882 67.6802 145.962C69.7802 143.502 68.0201 141.402 68.0201 141.402C64.5101 144.922 54.6602 142.452 54.6602 142.452C54.6602 142.452 58.5301 142.102 60.9901 140.342C63.9701 138.212 64.6202 134.602 64.1902 131.552C64.0102 130.252 63.6201 129.042 63.1401 128.112L64.7902 127.262C66.9302 131.572 69.7701 135.622 73.6501 138.992C73.7601 140.112 73.8401 141.232 73.9001 142.312Z" fill="black"/>
<path d="M57.47 102.003C58.17 105.323 58.88 109.113 59.84 113.063C52.01 111.453 50.08 102.713 49.23 97.313C49.49 96.993 49.77 96.683 50.08 96.373C52.62 93.833 53.76 91.933 54.61 90.373L54.66 90.3931C55.23 93.7131 57.47 102.003 57.47 102.003Z" fill="white"/>
<path d="M53.97 169.533L53.91 170.003C38.98 171.003 36.93 163.083 34.76 153.003C34.75 152.963 34.75 152.923 34.74 152.883C34.86 153.463 37.14 162.823 53.97 169.533Z" fill="black"/>
<path d="M148.76 124.281C147.48 125.231 139.08 131.121 130.99 130.141C130.99 130.141 130.77 131.011 130.7 132.261C130.56 135.141 131.28 140.071 137.67 141.051C137.67 141.051 129.93 142.451 127.12 139.641C127.12 139.641 126.02 144.211 129.23 145.271C129.23 145.271 122.9 145.271 121.84 143.161" stroke="black" stroke-width="2" stroke-linecap="round" stroke-linejoin="round"/>
<path d="M160.77 94.2715C159.66 95.2915 158.91 97.6315 159.13 100.951C159.45 105.771 158.01 111.471 152.93 114.301C152.45 114.571 151.94 114.811 151.39 115.021C145.06 117.481 140.13 118.531 140.13 123.111C140.13 127.691 147.01 125.381 148.76 124.281C148.87 124.201 148.93 124.161 148.93 124.161" stroke="black" stroke-width="2" stroke-linecap="round" stroke-linejoin="round"/>
<path d="M167.22 95.3222C167.22 95.3222 167.21 95.3222 167.2 95.3122C166.96 95.2722 164.98 94.9022 163 93.9122C162.21 93.5222 161.43 93.6622 160.77 94.2622" stroke="black" stroke-width="2" stroke-linecap="round" stroke-linejoin="round"/>
<path d="M166.91 75.3125C167.07 82.5625 164.21 86.7725 164.49 90.4825C164.62 92.1125 165.35 93.6525 167.2 95.3125" stroke="black" stroke-width="2" stroke-linecap="round" stroke-linejoin="round"/>
<path d="M152.68 52.2227C152.93 52.5227 153.2 52.8127 153.5 53.1127C155.79 55.3927 158.48 57.5627 160.85 60.1927C163.93 63.6127 166.47 67.8427 166.87 74.2127C166.9 74.5727 166.91 74.9427 166.91 75.2927" stroke="black" stroke-width="2" stroke-linecap="round" stroke-linejoin="round"/>
<path d="M126.83 19.1816C128.15 20.1316 129.43 21.2316 130.64 22.5016C133.49 25.5016 135.65 26.8816 137.65 28.1416C140.35 29.8316 142.75 31.3016 146.11 36.2216C148.01 38.9916 148.7 41.4716 149.23 43.7916C149.9 46.7416 150.32 49.4416 152.68 52.2116" stroke="black" stroke-width="2" stroke-linecap="round" stroke-linejoin="round"/>
<path d="M115.01 14.3125C118.6 14.8725 122.85 16.3225 126.8 19.1625" stroke="black" stroke-width="2" stroke-linecap="round" stroke-linejoin="round"/>
<path d="M93.71 20.0227C94.04 19.6627 98.57 14.9027 110.23 14.0627C111.57 13.9627 113.2 14.0327 115 14.3127" stroke="black" stroke-width="2" stroke-linecap="round" stroke-linejoin="round"/>
<path d="M51.1499 35.1114C53.7899 30.9114 57.0999 27.9014 61.1899 24.8714C63.5499 23.1114 66.1798 21.3514 69.0798 19.3414C69.7298 18.8914 70.3899 18.4714 71.0399 18.0914C72.9699 16.9414 74.9099 16.0814 76.8099 15.5114C83.2999 13.5714 89.4098 14.9914 93.6998 20.0414" stroke="black" stroke-width="2" stroke-linecap="round" stroke-linejoin="round"/>
<path d="M32.85 97.0819C32.85 97.0819 32.8501 97.0919 32.8401 97.1019C30.3701 99.8819 25.8101 98.1319 25.8101 98.1319C30.1201 96.3319 31.78 93.1519 31.98 89.3019C32.18 85.6219 31.0601 81.3219 29.6801 77.0319C28.3201 72.7719 28.1901 68.9219 28.9501 65.5319C29.5601 62.7619 30.76 60.2919 32.35 58.1419C32.83 57.4919 33.3501 56.8619 33.9001 56.2719C35.1201 54.9519 36.8301 53.4719 38.7101 51.7319C42.3301 48.3919 46.6001 44.1219 49.3801 38.3319C49.9201 37.2019 50.5 36.1519 51.11 35.1719" stroke="black" stroke-width="2" stroke-linecap="round" stroke-linejoin="round"/>
<path d="M47.2701 111.502C47.2701 111.502 47.2701 111.512 47.2701 111.522C46.8701 112.082 46.4701 112.592 46.0601 113.062C40.3001 119.712 33.56 118.182 33.56 118.182C38.84 116.772 38.84 110.092 34.62 106.222C30.54 102.482 32.7 97.4316 32.85 97.1016" stroke="black" stroke-width="2" stroke-linecap="round" stroke-linejoin="round"/>
<path d="M67.67 145.971H67.6801C69.7801 143.501 68.02 141.401 68.02 141.401C64.51 144.921 54.66 142.451 54.66 142.451C54.66 142.451 58.53 142.101 60.99 140.341C63.97 138.211 64.6201 134.601 64.1901 131.551C64.0101 130.251 63.62 129.041 63.14 128.111C62.91 127.671 62.66 127.281 62.4 126.981C60.28 124.511 59.23 125.571 54.5 128.461C49.77 131.351 44.46 128.381 44.46 128.381C44.46 128.381 49.0301 129.091 52.1901 126.271C54.6701 124.071 54.6601 119.591 50.4401 117.831C46.3901 116.141 47.19 111.881 47.26 111.521" stroke="black" stroke-width="2" stroke-linecap="round" stroke-linejoin="round"/>
<path d="M73.8201 142.312C72.6401 144.493 67.9702 145.883 67.6802 145.963" stroke="black" stroke-width="2" stroke-linecap="round" stroke-linejoin="round"/>
<path d="M49.23 97.302C49.49 96.992 49.77 96.682 50.08 96.372C52.62 93.832 53.76 91.932 54.61 90.372C55.46 88.812 56.02 87.592 57.38 86.412C57.87 85.982 58.47 85.552 59.23 85.122C64.16 82.302 66.62 77.732 68.73 72.452C70.84 67.182 75.06 64.012 77.17 66.472C79.28 68.942 76.47 69.992 74 72.352C71.54 74.702 74 77.382 74 77.382C74.35 73.512 80.33 72.812 85.61 68.942C90.89 65.072 90.07 62.602 91.48 55.222C92.89 47.832 97.41 45.502 97.41 45.502C98.41 45.502 100.82 48.582 99.41 53.502C98 58.422 94.05 61.902 96.16 69.992C98.27 78.082 104.96 78.082 106.01 81.952C106.01 81.952 106.72 78.792 103.2 75.622C99.68 72.452 98.6 65.042 103.9 60.142C108.47 55.922 109.47 55.672 108.41 52.502C108.41 52.502 113.41 52.502 113.41 58.502C113.41 68.312 110.59 73.512 119.38 75.622C128.44 77.792 131.83 78.692 135.56 84.412C136.16 85.332 136.76 86.1419 137.35 86.8619C137.97 87.6219 138.58 88.282 139.18 88.902C141.16 90.932 143.02 92.452 144.71 94.972C146.31 97.382 147.75 100.692 148.93 106.222" stroke="black" stroke-width="2" stroke-linecap="round" stroke-linejoin="round"/>
<path d="M46.57 106.222C46.57 106.222 45.4901 101.773 49.2301 97.3125" stroke="black" stroke-width="2" stroke-linecap="round" stroke-linejoin="round"/>
<path d="M57.4701 86.5215C56.0601 91.4515 56.9601 98.4215 57.4701 102.001C57.4701 102.001 55.2302 93.7115 54.6602 90.3915" stroke="black" stroke-width="2" stroke-linecap="round" stroke-linejoin="round"/>
<path d="M137.02 96.4522C137.02 96.4522 137.02 96.4422 137.03 96.4322C137.18 95.9822 138.85 91.0222 139.08 88.9922" stroke="black" stroke-width="2" stroke-linecap="round" stroke-linejoin="round"/>
<path d="M137.32 86.8828C137.94 91.8128 137.11 96.0428 137.03 96.4228" stroke="black" stroke-width="2" stroke-linecap="round" stroke-linejoin="round"/>
<path d="M92.1099 148.451C94.3299 148.911 96.6099 149.141 98.9799 149.141C108.47 149.141 114.39 145.531 120.43 140.691C120.87 140.341 121.32 139.961 121.77 139.561C124.43 137.211 127.17 134.011 129.59 129.391C131.85 125.081 133.83 119.521 135.21 112.231C136.07 107.681 136.7 102.461 137.02 96.4512" stroke="black" stroke-width="2" stroke-linecap="round" stroke-linejoin="round"/>
<path d="M57.47 102.002C58.17 105.322 58.88 109.112 59.84 113.062C60.99 117.742 62.49 122.652 64.79 127.262C66.93 131.572 69.77 135.622 73.65 138.992C74.32 139.582 75.02 140.152 75.76 140.692C81.17 144.682 86.43 147.302 92.09 148.442" stroke="black" stroke-width="2" stroke-linecap="round" stroke-linejoin="round"/>
<path d="M49.23 97.3027C50.08 102.713 52.01 111.453 59.84 113.063" stroke="black" stroke-width="2" stroke-linecap="round" stroke-linejoin="round"/>
<path d="M144.71 94.9727C143.65 105.523 141.19 111.503 135.32 112.253" stroke="black" stroke-width="2" stroke-linecap="round" stroke-linejoin="round"/>
<path d="M73.65 138.941V138.991C73.76 140.111 73.84 141.231 73.9 142.311C74.23 148.361 73.8801 153.591 73.1901 154.871C73.1901 154.871 72.24 157.581 67.52 158.451" stroke="black" stroke-width="2" stroke-linecap="round" stroke-linejoin="round"/>
<path d="M121.84 139.643C121.73 140.843 121.64 142.023 121.59 143.153C121.33 148.973 121.84 153.613 122.53 154.873C122.53 154.873 123.45 158.123 128.17 158.993" stroke="black" stroke-width="2" stroke-linecap="round" stroke-linejoin="round"/>
<path d="M71.04 18.0821C71.04 18.0821 71.41 17.6021 72.13 16.9021C73.65 15.4121 76.73 12.9121 81.04 11.9521C87.23 10.5821 93 15.1221 93.7 20.0421C93.7 20.0421 93.7 20.0321 93.71 20.0221C93.85 19.6321 96.2301 13.4021 104.68 11.4721C110.68 10.1121 116.24 11.8421 120.95 14.7221C123.09 16.0321 125.05 17.5721 126.8 19.1621C126.8 19.1621 126.81 19.1721 126.83 19.1821C127.24 19.4421 132.46 22.7221 137.83 25.9821C139.45 26.9621 141.08 27.9421 142.6 28.8421C149.47 32.9121 152.19 38.6521 152.62 48.4121C152.67 49.6121 152.69 50.8821 152.68 52.2121" stroke="black" stroke-width="2" stroke-linecap="round" stroke-linejoin="round"/>
<path d="M115 14.3125H115.01C116.82 14.3325 118.85 14.4525 120.95 14.7225C128.89 15.7225 137.66 18.7625 137.83 25.9825C137.86 26.6625 137.8 27.3825 137.65 28.1425" stroke="black" stroke-width="2" stroke-linecap="round" stroke-linejoin="round"/>
<path d="M149.23 43.793C150.26 45.773 151.4 47.233 152.62 48.413C155.64 51.353 159.14 52.573 162.65 55.573C166.33 58.733 167.5 63.513 167.4 69.243C167.37 71.163 167.19 73.193 166.91 75.293V75.313" stroke="black" stroke-width="2" stroke-linecap="round" stroke-linejoin="round"/>
<path d="M160.85 60.1914C163.54 62.6614 165.85 65.8614 167.4 69.2414C168.91 72.5414 169.68 76.0114 169.33 79.1414C168.63 85.4814 165.98 87.0614 164.49 90.4814" stroke="black" stroke-width="2" stroke-linecap="round" stroke-linejoin="round"/>
<path d="M160.77 94.2617C160.53 100.242 163.26 104.242 160.85 109.282C159.56 111.992 155.91 112.732 153 114.422C151.26 115.442 149.78 116.812 149.23 119.152" stroke="black" stroke-width="2" stroke-linecap="round" stroke-linejoin="round"/>
<path d="M76.8102 15.5117C75.2102 15.7817 73.6401 16.2817 72.1301 16.9017C67.9801 18.5817 64.2702 21.1217 61.6902 22.1517C58.8502 23.2917 53.7301 25.5117 51.8601 30.7917C51.4101 32.0517 51.1501 33.4817 51.1501 35.1117C51.1501 35.1117 51.1501 35.1417 51.1101 35.1717C50.8001 35.5317 48.8501 37.7417 45.8601 39.7417C41.0201 42.9717 34.9801 45.9017 32.8301 55.4517C32.6401 56.2917 32.4801 57.1917 32.3501 58.1417" stroke="black" stroke-width="2" stroke-linecap="round" stroke-linejoin="round"/>
<path d="M61.1901 24.873C58.2001 26.363 54.94 28.923 51.86 30.793C48.2 33.013 44.81 34.263 42.46 31.613" stroke="black" stroke-width="2" stroke-linecap="round" stroke-linejoin="round"/>
<path d="M38.7399 51.7129C38.7399 51.7129 38.7199 51.7129 38.7099 51.7329C36.7899 52.8429 34.7499 54.0829 32.8299 55.4529C29.9199 57.5329 27.2899 59.8929 25.8099 62.5029C23.8499 65.9529 24.7899 69.7829 27.3899 73.8629C28.0499 74.9029 28.8199 75.9629 29.6799 77.0329" stroke="black" stroke-width="2" stroke-linecap="round" stroke-linejoin="round"/>
<path d="M28.9499 65.5312C27.9899 68.1512 27.3999 70.8912 27.3899 73.8612C27.3799 78.3612 28.6899 83.3913 31.9799 89.3013" stroke="black" stroke-width="2" stroke-linecap="round" stroke-linejoin="round"/>
<path d="M46.0499 113.062C44.4599 117.483 47.6198 119.943 50.0798 121.353C52.5498 122.753 53.6 123.812 52.19 126.272" stroke="black" stroke-width="2" stroke-linecap="round" stroke-linejoin="round"/>
<path d="M78.9102 175.153C78.9102 177.283 77.3402 179.003 75.4102 179.003C75.2302 179.003 75.0601 178.993 74.8901 178.953C73.2001 178.683 71.9102 177.083 71.9102 175.153C71.9102 173.023 73.4802 171.303 75.4102 171.303C77.3402 171.303 78.9102 173.023 78.9102 175.153Z" stroke="black" stroke-width="2" stroke-linecap="round" stroke-linejoin="round"/>
<path d="M117.19 172.183C117.79 171.633 118.57 171.303 119.41 171.303C121.34 171.303 122.91 173.023 122.91 175.153C122.91 177.283 121.34 179.003 119.41 179.003C119.31 179.003 119.2 179.003 119.1 178.983C117.32 178.813 115.91 177.173 115.91 175.153C115.91 173.953 116.41 172.883 117.19 172.183Z" stroke="black" stroke-width="2" stroke-linecap="round" stroke-linejoin="round"/>
<path d="M75.17 174.822C75.17 174.822 75.05 176.422 74.89 178.952C74.56 184.282 74.04 193.782 74.03 201.282C74.03 203.522 74.0701 205.582 74.1801 207.302" stroke="black" stroke-width="3" stroke-linecap="round" stroke-linejoin="round"/>
<path d="M119.15 175.602C119.15 176.332 119.13 177.502 119.1 178.982C119.01 184.412 118.85 194.052 119.32 201.362C119.46 203.502 119.65 205.432 119.91 207.002" stroke="black" stroke-width="3" stroke-linecap="round" stroke-linejoin="round"/>
<path d="M77.9102 165.701C86.0102 172.001 96.8802 180.441 100.03 180.441C102.64 180.441 109.25 175.531 115.51 170.321C116.95 169.121 118.38 167.901 119.73 166.721C124.91 162.221 126.05 160.601 128.24 159.091C129.46 158.251 131.02 157.441 133.8 156.171C133.8 156.171 142.91 149.001 129.23 145.271" stroke="black" stroke-width="2" stroke-linecap="round" stroke-linejoin="round"/>
<path d="M67.6701 145.973C67.6701 145.973 63.9101 146.003 61.1901 148.443C57.4201 151.833 62.75 156.173 62.75 156.173C64.4 156.883 65.94 157.633 67.49 158.503C70.55 160.213 73.66 162.393 77.85 165.663" stroke="black" stroke-width="2" stroke-linecap="round" stroke-linejoin="round"/>
<path d="M76.47 164.611C76.9 164.971 77.36 165.321 77.85 165.661C77.87 165.681 77.89 165.691 77.91 165.701C86.19 171.441 103.24 174.591 119.73 166.721" stroke="black" stroke-width="2" stroke-linecap="round" stroke-linejoin="round"/>
<path d="M34.5399 153.053C28.9799 156.173 27.5699 160.743 28.6299 162.153" stroke="black" stroke-width="2" stroke-linecap="round" stroke-linejoin="round"/>
<path d="M34.74 152.883C34.86 153.463 37.14 162.823 53.97 169.533" stroke="black" stroke-width="2" stroke-linecap="round" stroke-linejoin="round"/>
<path d="M64.15 131.553C45.16 133.663 35.83 143.403 34.73 152.853" stroke="black" stroke-width="2" stroke-linecap="round" stroke-linejoin="round"/>
<path d="M-3 201.142C-3 201.142 -2.95999 201.042 -2.92999 200.992C9.17001 173.002 19.76 166.652 28.63 162.152H28.64C28.64 162.152 30.06 164.652 31.98 165.512" stroke="black" stroke-width="2" stroke-linecap="round" stroke-linejoin="round"/>
<path d="M161.34 153.053C161.5 153.143 161.66 153.233 161.81 153.333C166.98 156.433 168.28 160.783 167.25 162.153" stroke="black" stroke-width="2" stroke-linecap="round" stroke-linejoin="round"/>
<path d="M130.64 132.252C130.64 132.252 130.68 132.252 130.7 132.262C155.27 134.032 160.04 143.412 161.15 152.852C161.15 152.852 161.15 152.902 161.11 153.002C160.8 154.252 158.02 163.102 141.91 169.532" stroke="black" stroke-width="2" stroke-linecap="round" stroke-linejoin="round"/>
<path d="M198.88 201.142C186.74 173.032 176.15 166.662 167.25 162.162C167.24 162.162 167.24 162.152 167.23 162.152C167.23 162.152 166.16 164.262 164.46 165.612" stroke="black" stroke-width="2" stroke-linecap="round" stroke-linejoin="round"/>
<path d="M92.0898 148.441C92.0898 148.441 92.0999 148.451 92.1099 148.451" stroke="black" stroke-width="2" stroke-linecap="round" stroke-linejoin="round"/>
<path d="M34.73 152.852C34.73 152.852 34.73 152.872 34.74 152.882" stroke="black" stroke-width="2" stroke-linecap="round" stroke-linejoin="round"/>
<path d="M89.4799 77.033C82.7999 72.463 73.9999 72.463 68.4199 77.033" stroke="black" stroke-width="3" stroke-linecap="round" stroke-linejoin="round"/>
<path d="M106.76 77.0323C113.44 73.7523 122.24 73.7523 127.82 77.0323" stroke="black" stroke-width="3" stroke-linecap="round" stroke-linejoin="round"/>
<path d="M93.6999 93.2129C93.6999 101.303 89.48 108.343 78.38 108.333C67.32 108.333 63.09 101.763 62.74 93.2129C62.39 84.4229 69.7799 82.0328 78.5699 81.9528C87.9099 81.8728 93.6999 84.6429 93.6999 93.2129Z" stroke="black" stroke-width="2" stroke-linecap="round" stroke-linejoin="round"/>
<path d="M101.78 93.2129C101.78 101.303 106 108.343 117.1 108.333C128.16 108.333 132.39 101.763 132.74 93.2129C133.09 84.6629 125.7 82.0328 116.91 81.9528C107.57 81.8728 101.78 84.6429 101.78 93.2129Z" stroke="black" stroke-width="2" stroke-linecap="round" stroke-linejoin="round"/>
<path d="M93.1099 88.9927C95.4599 87.5727 100.38 87.5727 102.14 89.3327" stroke="black" stroke-width="2" stroke-linecap="round" stroke-linejoin="round"/>
<path d="M62.73 89.6016L54.05 91.3616" stroke="black" stroke-width="2" stroke-linecap="round" stroke-linejoin="round"/>
<path d="M132.18 88.9922L138.95 89.6022" stroke="black" stroke-width="2" stroke-linecap="round" stroke-linejoin="round"/>
<path d="M97.5699 91.4512C96.9099 98.0012 91.91 108.001 94.4 111.851C96.58 115.221 101.08 114.661 101.08 114.661" stroke="black" stroke-width="2" stroke-linecap="round" stroke-linejoin="round"/>
<path d="M89.8301 126.983C93.7001 128.043 103.9 128.393 108.47 126.633" stroke="black" stroke-width="2" stroke-linecap="round" stroke-linejoin="round"/>
<path d="M78.04 96.3714C79.8847 96.3714 81.38 94.876 81.38 93.0314C81.38 91.1868 79.8847 89.6914 78.04 89.6914C76.1954 89.6914 74.7 91.1868 74.7 93.0314C74.7 94.876 76.1954 96.3714 78.04 96.3714Z" fill="black"/>
<path d="M117.09 96.3714C118.935 96.3714 120.43 94.876 120.43 93.0314C120.43 91.1868 118.935 89.6914 117.09 89.6914C115.245 89.6914 113.75 91.1868 113.75 93.0314C113.75 94.876 115.245 96.3714 117.09 96.3714Z" fill="black"/>
</g>
</svg>
